<?xml version="1.0" ?><!DOCTYPE svg  PUBLIC '-//W3C//DTD SVG 1.1//EN'  'http://www.w3.org/Graphics/SVG/1.1/DTD/svg11.dtd'><svg enable-background="new 0 0 512 512" height="512px" id="Layer_1" version="1.1" viewBox="0 0 512 512" width="512px" xml:space="preserve" xmlns="http://www.w3.org/2000/svg" xmlns:xlink="http://www.w3.org/1999/xlink"><path d="M512,432c0,44.182-35.816,80-80,80H79.999c-44.183,0-80-35.818-80-80V80c0-44.183,35.817-80,80-80H432  c44.184,0,80,35.817,80,80V432z" fill="#4086CD"/><path d="M512,432v-69.564l-129.55-129.55l-9.971,9.971l-69.667-69.668l-61.94,61.939l22.188,22.189l-28.773,28.771  l-28.796-28.795l-81.243,81.242L297.713,512H432C476.184,512,512,476.182,512,432z" fill="#205E91"/><path d="M169.743,358.941l-0.018,0.072h1.533c0.792,0.02,1.574,0.111,2.376,0.111  c0.806,0,1.584-0.092,2.38-0.111h150.344v-0.045c1.099,0.045,2.17,0.156,3.277,0.156c42.179,0,76.364-32.813,76.364-73.279  c0-40.475-34.186-73.278-76.364-73.278c-1.547,0-3.076,0.133-4.604,0.22c-6.556-34.076-37.629-59.912-75.037-59.912  c-42.169,0-76.359,32.808-76.359,73.283c0,1.063,0.119,2.106,0.164,3.159c-0.055,0-0.104-0.005-0.164-0.005  c-37.354,0-67.635,29.055-67.635,64.901C106,328.803,134.212,357,169.743,358.941L169.743,358.941z" fill="#FFFFFF" id="app"/></svg>